<?xml version="1.0" encoding="UTF-8" standalone="no"?>
<svg
   xmlns:dc="http://purl.org/dc/elements/1.1/"
   xmlns:cc="http://creativecommons.org/ns#"
   xmlns:rdf="http://www.w3.org/1999/02/22-rdf-syntax-ns#"
   xmlns:svg="http://www.w3.org/2000/svg"
   xmlns="http://www.w3.org/2000/svg"
   xmlns:sodipodi="http://sodipodi.sourceforge.net/DTD/sodipodi-0.dtd"
   xmlns:inkscape="http://www.inkscape.org/namespaces/inkscape"
   version="1.1"
   id="Capa_1"
   x="0px"
   y="0px"
   viewBox="0 0 112.196 112.196"
   style="enable-background:new 0 0 112.196 112.196;"
   xml:space="preserve"
   sodipodi:docname="githublogo.svg"
   inkscape:version="0.92.4 (5da689c313, 2019-01-14)"><metadata
   id="metadata3948"><rdf:RDF><cc:Work
       rdf:about=""><dc:format>image/svg+xml</dc:format><dc:type
         rdf:resource="http://purl.org/dc/dcmitype/StillImage" /><dc:title /></cc:Work></rdf:RDF></metadata><defs
   id="defs3946" /><sodipodi:namedview
   pagecolor="#ffffff"
   bordercolor="#666666"
   borderopacity="1"
   objecttolerance="10"
   gridtolerance="10"
   guidetolerance="10"
   inkscape:pageopacity="0"
   inkscape:pageshadow="2"
   inkscape:window-width="1920"
   inkscape:window-height="1027"
   id="namedview3944"
   showgrid="false"
   inkscape:zoom="5.9494884"
   inkscape:cx="47.192022"
   inkscape:cy="42.948724"
   inkscape:window-x="-8"
   inkscape:window-y="-8"
   inkscape:window-maximized="1"
   inkscape:current-layer="g954" />
<g
   id="g3911">
	
	
<g
   id="g954"
   transform="matrix(0.26312989,0,0,0.26999819,0.1812772,0.30386327)"><g
     id="g3821">
	<path
   style="stroke-width:0.2593587"
   d="M 56.166016 0.046875 C 45.980542 0.046875 36.586923 2.6230382 27.986328 7.7734375 C 19.384455 12.924097 12.575091 19.911878 7.5546875 28.738281 C 2.5350543 37.564422 0.025390625 47.204271 0.025390625 57.654297 C 0.025390625 70.20715 3.5942276 81.493805 10.734375 91.519531 C 17.873756 101.54605 27.096442 108.48379 38.402344 112.33398 C 39.718383 112.58462 40.692731 112.40929 41.326172 111.81055 C 41.959862 111.21102 42.275391 110.45958 42.275391 109.56055 C 42.275391 109.41054 42.264569 108.06054 42.240234 105.50977 C 42.215132 102.959 42.203125 100.73463 42.203125 98.835938 L 40.521484 99.134766 C 39.449451 99.336271 38.097604 99.420652 36.464844 99.396484 C 34.832857 99.373076 33.136934 99.197397 31.382812 98.871094 C 29.627923 98.54769 27.997214 97.7982 26.486328 96.623047 C 24.976212 95.447896 23.90323 93.908722 23.269531 92.009766 L 22.539062 90.285156 C 22.051819 89.136006 21.284293 87.858239 20.236328 86.458984 C 19.188364 85.058415 18.128675 84.109333 17.056641 83.609375 L 16.544922 83.234375 C 16.203876 82.984527 15.888351 82.681714 15.595703 82.332031 C 15.303303 81.982346 15.083698 81.633672 14.9375 81.283203 C 14.791045 80.932473 14.912277 80.643649 15.302734 80.417969 C 15.693193 80.192296 16.39798 80.083984 17.421875 80.083984 L 18.884766 80.306641 C 19.859505 80.507098 21.063786 81.106719 22.501953 82.107422 C 23.939355 83.107344 25.120786 84.406404 26.046875 86.005859 C 27.168326 88.056663 28.520848 89.619993 30.105469 90.695312 C 31.688808 91.770632 33.284655 92.306641 34.892578 92.306641 C 36.500499 92.306641 37.888495 92.182386 39.058594 91.933594 C 40.227411 91.683481 41.325708 91.30829 42.349609 90.808594 C 42.788202 87.456788 43.980979 84.881939 45.929688 83.082031 C 43.152186 82.782528 40.655561 82.330262 38.4375 81.730469 C 36.22072 81.129885 33.929644 80.156128 31.566406 78.804688 C 29.201889 77.455083 27.240661 75.778609 25.681641 73.779297 C 24.122369 71.778937 22.842043 69.151953 21.84375 65.902344 C 20.844947 62.651428 20.345703 58.902658 20.345703 54.652344 C 20.345703 48.600542 22.27104 43.450059 26.121094 39.199219 C 24.317556 34.649404 24.488233 29.549055 26.632812 23.898438 C 28.046144 23.447872 30.14241 23.785445 32.919922 24.910156 C 35.697939 26.035393 37.731462 26.999626 39.023438 27.798828 C 40.315403 28.597764 41.350969 29.275132 42.130859 29.824219 C 46.664024 28.524534 51.341742 27.875 56.166016 27.875 C 60.9903 27.875 65.6697 28.524534 70.203125 29.824219 L 72.980469 28.025391 C 74.880019 26.82475 77.123695 25.722835 79.705078 24.722656 C 82.287993 23.723 84.263709 23.447875 85.628906 23.898438 C 87.821107 29.549325 88.01499 34.649404 86.210938 39.199219 C 90.060736 43.450054 91.988281 48.601857 91.988281 54.652344 C 91.988281 58.902655 91.485554 62.665529 90.488281 65.941406 C 89.48973 69.217813 88.200532 71.840211 86.617188 73.816406 C 85.032054 75.792334 83.056597 77.45535 80.693359 78.804688 C 78.329611 80.155078 76.039048 81.129882 73.822266 81.730469 C 71.60446 82.331053 69.107588 82.782001 66.330078 83.082031 C 68.863327 85.331456 70.128906 88.882047 70.128906 93.732422 L 70.128906 109.55859 C 70.128906 110.45763 70.435037 111.2088 71.044922 111.80859 C 71.654039 112.40734 72.615599 112.58293 73.931641 112.33203 C 85.239071 108.48237 94.462438 101.5441 101.60156 91.517578 C 108.73992 81.491849 112.30859 70.203238 112.30859 57.650391 C 112.30596 47.201679 109.79663 37.564422 104.7793 28.738281 C 99.758894 19.911878 92.948765 12.924361 84.347656 7.7734375 C 75.745272 2.6222498 66.352766 0.046875 56.166016 0.046875 z "
   transform="matrix(3.8004044,0,0,3.7037285,-0.68892667,-1.1254271)"
   id="path3819" />
</g><g
     id="g3823">
</g><g
     id="g3825">
</g><g
     id="g3827">
</g><g
     id="g3829">
</g><g
     id="g3831">
</g><g
     id="g3833">
</g><g
     id="g3835">
</g><g
     id="g3837">
</g><g
     id="g3839">
</g><g
     id="g3841">
</g><g
     id="g3843">
</g><g
     id="g3845">
</g><g
     id="g3847">
</g><g
     id="g3849">
</g><g
     id="g3851">
</g></g></g>
<g
   id="g3913">
</g>
<g
   id="g3915">
</g>
<g
   id="g3917">
</g>
<g
   id="g3919">
</g>
<g
   id="g3921">
</g>
<g
   id="g3923">
</g>
<g
   id="g3925">
</g>
<g
   id="g3927">
</g>
<g
   id="g3929">
</g>
<g
   id="g3931">
</g>
<g
   id="g3933">
</g>
<g
   id="g3935">
</g>
<g
   id="g3937">
</g>
<g
   id="g3939">
</g>
<g
   id="g3941">
</g>
</svg>